<svg width="192" height="192" viewBox="0 0 192 192" fill="none" xmlns="http://www.w3.org/2000/svg">
  <rect width="192" height="192" rx="42" fill="#1a1a2e"/>
  <rect x="4" y="4" width="184" height="184" rx="38" fill="url(#gradient)" fill-opacity="0.1"/>
  
  <!-- Brain icon -->
  <g transform="translate(48, 48) scale(4)">
    <path d="M9.5 2A2.5 2.5 0 0 1 12 4.5v15a2.5 2.5 0 0 1-4.96.44 2.5 2.5 0 0 1-2.96-3.08 3 3 0 0 1-.34-5.58 2.5 2.5 0 0 1 1.32-4.24 2.5 2.5 0 0 1 1.98-3A2.5 2.5 0 0 1 9.5 2Z" stroke="#7c5cff" stroke-width="1.5" stroke-linecap="round" stroke-linejoin="round" fill="none"/>
    <path d="M14.5 2A2.5 2.5 0 0 0 12 4.5v15a2.5 2.5 0 0 0 4.96.44 2.5 2.5 0 0 0 2.96-3.08 3 3 0 0 0 .34-5.58 2.5 2.5 0 0 0-1.32-4.24 2.5 2.5 0 0 0-1.98-3A2.5 2.5 0 0 0 14.5 2Z" stroke="#9d7fff" stroke-width="1.5" stroke-linecap="round" stroke-linejoin="round" fill="none"/>
  </g>
  
  <!-- Checkmark accent -->
  <circle cx="140" cy="140" r="24" fill="#7c5cff"/>
  <path d="M128 140L136 148L152 132" stroke="white" stroke-width="4" stroke-linecap="round" stroke-linejoin="round"/>
  
  <defs>
    <linearGradient id="gradient" x1="0" y1="0" x2="192" y2="192" gradientUnits="userSpaceOnUse">
      <stop stop-color="#7c5cff"/>
      <stop offset="1" stop-color="#9d7fff"/>
    </linearGradient>
  </defs>
</svg>
